# Apple ModelIO OBJ File: hhhhhzzzggg
mtllib hhhhhzzzggg.mtl
g newuntiscale_Material.001
v -3.11323 -0.534669 4.95834
v -3.11323 1.46533 4.95834
v -3.11323 1.46533 -5.64612
v -3.11323 -0.534669 -5.64612
v 2.64238 1.46533 -5.64612
v 2.64238 -0.534669 -5.64612
v 2.64238 1.46533 4.95834
v 2.64238 -0.534669 4.95834
v 2.48449 -0.214707 -5.48823
v -2.95533 -0.214707 -5.48823
v -2.95533 -0.214707 4.80045
v 2.48449 -0.214707 4.80045
v -2.95533 1.46533 4.80045
v -2.95533 1.46533 -5.48823
v 2.48449 1.46533 -5.48823
v 2.48449 1.46533 4.80045
vn -1 -0 -0
vn -0 -0 -1
vn 1 -0 -0
vn -0 -0 1
vn -0 -1 -0
vn -0 1 -0
vt 0.646682 0.507557
vt 0.550957 0.507557
vt 0.550957 0
vt 0.646682 0
vt 0.356089 0.783035
vt 0.260364 0.783035
vt 0.260364 0.507557
vt 0.356089 0.507557
vt 0.742407 0.507557
vt 0.742407 -0
vt 0.451814 0.783035
vt 0.451814 0.507557
vt 0.275478 0.507557
vt 0 0.507557
vt 0 0
vt 0.275478 0
vt 0.260364 1
vt 0 1
vt 0.547539 0.783035
vt 0.547539 0.507557
vt 0.283036 0.007557
vt 0.283036 0.5
vt 0.543399 0.5
vt 0.543399 0.007557
vt 0.822818 0
vt 0.822818 0.492443
vt 0.742407 0.492443
vt 0.62795 0.507557
vt 0.62795 0.767921
vt 0.547539 0.767921
vt 0.903229 0
vt 0.903229 0.492443
vt 0.708361 0.507557
vt 0.708361 0.767921
usemtl Material.001
f 1/1/1 2/2/1 3/3/1
f 1/1/1 3/3/1 4/4/1
f 4/5/2 3/6/2 5/7/2
f 4/5/2 5/7/2 6/8/2
f 6/9/3 5/1/3 7/4/3
f 6/9/3 7/4/3 8/10/3
f 8/11/4 7/5/4 2/8/4
f 8/11/4 2/8/4 1/12/4
f 4/13/5 6/14/5 8/15/5
f 4/13/5 8/15/5 1/16/5
f 9/17/6 10/18/6 11/14/6
f 9/17/6 11/14/6 12/7/6
f 4/19/2 3/11/2 5/12/2
f 4/19/2 5/12/2 6/20/2
f 13/21/6 14/22/6 3/13/6
f 13/21/6 3/13/6 2/16/6
f 14/22/6 15/23/6 5/2/6
f 14/22/6 5/2/6 3/13/6
f 15/23/6 16/24/6 7/3/6
f 15/23/6 7/3/6 5/2/6
f 16/24/6 13/21/6 2/16/6
f 16/24/6 2/16/6 7/3/6
f 11/25/3 10/26/3 14/27/3
f 11/25/3 14/27/3 13/10/3
f 10/28/4 9/29/4 15/30/4
f 10/28/4 15/30/4 14/20/4
f 9/31/1 12/32/1 16/26/1
f 9/31/1 16/26/1 15/25/1
f 12/33/2 11/34/2 13/29/2
f 12/33/2 13/29/2 16/28/2
s off
